ffmpeg started on 2016-12-06 at 02:01:33
Report written to "Output/x264/results/ffmpeg/crowd_run_2160p50fast2000k.log"
Command line:
Tools/ffmpeg/ffmpeg -benchmark -y -i Input/y4m/crowd_run_2160p50.y4m -c:v libx264 -preset fast -b:v 2000k -an Output/x264/encoded/crowd_run_2160p50fast2000k.mkv
ffmpeg version N-82227-gdb23fde Copyright (c) 2000-2016 the FFmpeg developers
  built with gcc 5.4.0 (Ubuntu 5.4.0-6ubuntu1~16.04.2) 20160609
  configuration: --prefix=/home/jaroslav/ffmpeg_build --pkg-config-flags=--static --extra-cflags=-I/home/jaroslav/ffmpeg_build/include --extra-ldflags=-L/home/jaroslav/ffmpeg_build/lib --bindir=/home/jaroslav/bin --enable-gpl --enable-libass --enable-libfdk-aac --enable-libfreetype --enable-libmp3lame --enable-libopus --enable-libtheora --enable-libvorbis --enable-libvpx --enable-libx264 --enable-libx265 --enable-nvenc --enable-libmfx --enable-libxvid --enable-libgsm --enable-libopencore-amrnb --enable-version3 --enable-nonfree
  libavutil      55. 35.100 / 55. 35.100
  libavcodec     57. 66.101 / 57. 66.101
  libavformat    57. 57.100 / 57. 57.100
  libavdevice    57.  2.100 / 57.  2.100
  libavfilter     6. 66.100 /  6. 66.100
  libswscale      4.  3.100 /  4.  3.100
  libswresample   2.  4.100 /  2.  4.100
  libpostproc    54.  2.100 / 54.  2.100
Input #0, yuv4mpegpipe, from 'Input/y4m/crowd_run_2160p50.y4m':
  Duration: 00:00:10.00, start: 0.000000, bitrate: 4976642 kb/s
    Stream #0:0: Video: rawvideo (I420 / 0x30323449), yuv420p(progressive), 3840x2160, SAR 1:1 DAR 16:9, 50 fps, 50 tbr, 50 tbn, 50 tbc
[libx264 @ 0x35de1c0] using SAR=1/1
[libx264 @ 0x35de1c0] using cpu capabilities: MMX2 SSE2Fast SSSE3 SSE4.2 AVX FMA3 AVX2 LZCNT BMI2
[libx264 @ 0x35de1c0] profile High, level 5.2
[libx264 @ 0x35de1c0] 264 - core 148 - H.264/MPEG-4 AVC codec - Copyleft 2003-2016 - http://www.videolan.org/x264.html - options: cabac=1 ref=2 deblock=1:0:0 analyse=0x3:0x113 me=hex subme=6 psy=1 psy_rd=1.00:0.00 mixed_ref=1 me_range=16 chroma_me=1 trellis=1 8x8dct=1 cqm=0 deadzone=21,11 fast_pskip=1 chroma_qp_offset=-2 threads=6 lookahead_threads=1 sliced_threads=0 nr=0 decimate=1 interlaced=0 bluray_compat=0 constrained_intra=0 bframes=3 b_pyramid=2 b_adapt=1 b_bias=0 direct=1 weightb=1 open_gop=0 weightp=1 keyint=250 keyint_min=25 scenecut=40 intra_refresh=0 rc_lookahead=30 rc=abr mbtree=1 bitrate=2000 ratetol=1.0 qcomp=0.60 qpmin=0 qpmax=69 qpstep=4 ip_ratio=1.40 aq=1:1.00
Output #0, matroska, to 'Output/x264/encoded/crowd_run_2160p50fast2000k.mkv':
  Metadata:
    encoder         : Lavf57.57.100
    Stream #0:0: Video: h264 (libx264) (H264 / 0x34363248), yuv420p, 3840x2160 [SAR 1:1 DAR 16:9], q=-1--1, 2000 kb/s, 50 fps, 1k tbn, 50 tbc
    Metadata:
      encoder         : Lavc57.66.101 libx264
    Side data:
      cpb: bitrate max/min/avg: 0/0/2000000 buffer size: 0 vbv_delay: -1
Stream mapping:
  Stream #0:0 -> #0:0 (rawvideo (native) -> h264 (libx264))
Press [q] to stop, [?] for help
frame=   19 fps=0.0 q=0.0 size=       0kB time=00:00:00.00 bitrate=N/A speed=   0x    frame=   29 fps= 28 q=0.0 size=       0kB time=00:00:00.00 bitrate=N/A speed=   0x    frame=   37 fps= 12 q=0.0 size=       0kB time=00:00:00.00 bitrate=N/A speed=   0x    frame=   44 fps= 12 q=49.0 size=       1kB time=00:00:00.02 bitrate= 279.6kbits/s speed=0.00596x    frame=   50 fps= 12 q=61.0 size=       1kB time=00:00:00.14 bitrate=  41.6kbits/s speed=0.0339x    frame=   57 fps= 12 q=66.0 size=       1kB time=00:00:00.28 bitrate=  20.9kbits/s speed=0.0597x    frame=   66 fps= 13 q=67.0 size=       1kB time=00:00:00.46 bitrate=  12.7kbits/s speed=0.0877x    frame=   75 fps= 13 q=68.0 size=       1kB time=00:00:00.64 bitrate=   9.2kbits/s speed=0.111x    frame=   83 fps= 13 q=68.0 size=       1kB time=00:00:00.80 bitrate=   7.3kbits/s speed=0.127x    frame=   91 fps= 13 q=69.0 size=       1kB time=00:00:00.96 bitrate=   6.1kbits/s speed=0.141x    frame=   99 fps= 14 q=69.0 size=       1kB time=00:00:01.12 bitrate=   5.2kbits/s speed=0.153x    frame=  107 fps= 14 q=68.0 size=       1kB time=00:00:01.28 bitrate=   4.6kbits/s speed=0.164x    frame=  116 fps= 14 q=68.0 size=       1kB time=00:00:01.46 bitrate=   4.0kbits/s speed=0.175x    frame=  125 fps= 14 q=67.0 size=       1kB time=00:00:01.64 bitrate=   3.6kbits/s speed=0.185x    frame=  133 fps= 14 q=67.0 size=       1kB time=00:00:01.80 bitrate=   3.3kbits/s speed=0.192x    frame=  142 fps= 14 q=67.0 size=       1kB time=00:00:01.98 bitrate=   3.0kbits/s speed=0.198x    frame=  151 fps= 14 q=67.0 size=       1kB time=00:00:02.16 bitrate=   2.7kbits/s speed=0.205x    frame=  160 fps= 14 q=66.0 size=       1kB time=00:00:02.34 bitrate=   2.5kbits/s speed=0.212x    frame=  168 fps= 15 q=66.0 size=       1kB time=00:00:02.50 bitrate=   2.3kbits/s speed=0.216x    frame=  176 fps= 15 q=66.0 size=       1kB time=00:00:02.66 bitrate=   2.2kbits/s speed=0.22x    frame=  185 fps= 15 q=66.0 size=       1kB time=00:00:02.84 bitrate=   2.1kbits/s speed=0.226x    frame=  194 fps= 15 q=65.0 size=       1kB time=00:00:03.02 bitrate=   1.9kbits/s speed=0.228x    frame=  203 fps= 15 q=65.0 size=       1kB time=00:00:03.20 bitrate=   1.8kbits/s speed=0.233x    frame=  212 fps= 15 q=65.0 size=       1kB time=00:00:03.38 bitrate=   1.7kbits/s speed=0.237x    frame=  221 fps= 15 q=65.0 size=       1kB time=00:00:03.56 bitrate=   1.6kbits/s speed=0.241x    frame=  230 fps= 15 q=65.0 size=       1kB time=00:00:03.74 bitrate=   1.6kbits/s speed=0.242x    frame=  239 fps= 15 q=65.0 size=       1kB time=00:00:03.92 bitrate=   1.5kbits/s speed=0.246x    frame=  247 fps= 15 q=65.0 size=       1kB time=00:00:04.08 bitrate=   1.4kbits/s speed=0.248x    frame=  256 fps= 15 q=65.0 size=       1kB time=00:00:04.26 bitrate=   1.4kbits/s speed=0.251x    frame=  265 fps= 15 q=65.0 size=       1kB time=00:00:04.44 bitrate=   1.3kbits/s speed=0.254x    frame=  274 fps= 15 q=65.0 size=       1kB time=00:00:04.62 bitrate=   1.3kbits/s speed=0.254x    frame=  283 fps= 15 q=65.0 size=       1kB time=00:00:04.80 bitrate=   1.2kbits/s speed=0.257x    frame=  287 fps= 15 q=65.0 size=       1kB time=00:00:04.88 bitrate=   1.2kbits/s speed=0.248x    frame=  296 fps= 15 q=65.0 size=    1262kB time=00:00:05.06 bitrate=2043.5kbits/s speed=0.249x    frame=  305 fps= 15 q=65.0 size=    1262kB time=00:00:05.24 bitrate=1973.3kbits/s speed=0.252x    frame=  314 fps= 15 q=65.0 size=    1262kB time=00:00:05.42 bitrate=1907.8kbits/s speed=0.254x    frame=  322 fps= 15 q=65.0 size=    1262kB time=00:00:05.58 bitrate=1853.1kbits/s speed=0.256x    frame=  330 fps= 15 q=65.0 size=    1262kB time=00:00:05.74 bitrate=1801.4kbits/s speed=0.257x    frame=  338 fps= 15 q=65.0 size=    1262kB time=00:00:05.90 bitrate=1752.6kbits/s speed=0.258x    frame=  347 fps= 15 q=65.0 size=    1262kB time=00:00:06.08 bitrate=1700.7kbits/s speed=0.26x    frame=  355 fps= 15 q=65.0 size=    1262kB time=00:00:06.24 bitrate=1657.1kbits/s speed=0.26x    frame=  363 fps= 15 q=65.0 size=    1262kB time=00:00:06.40 bitrate=1615.7kbits/s speed=0.261x    frame=  368 fps= 15 q=66.0 size=    1262kB time=00:00:06.50 bitrate=1590.8kbits/s speed=0.26x    frame=  376 fps= 15 q=66.0 size=    1262kB time=00:00:06.66 bitrate=1552.6kbits/s speed=0.261x    frame=  385 fps= 15 q=66.0 size=    1262kB time=00:00:06.84 bitrate=1511.8kbits/s speed=0.263x    frame=  394 fps= 15 q=66.0 size=    1262kB time=00:00:07.02 bitrate=1473.0kbits/s speed=0.265x    frame=  403 fps= 15 q=66.0 size=    1262kB time=00:00:07.20 bitrate=1436.2kbits/s speed=0.266x    frame=  412 fps= 15 q=66.0 size=    1262kB time=00:00:07.38 bitrate=1401.2kbits/s speed=0.266x    frame=  420 fps= 15 q=66.0 size=    1262kB time=00:00:07.54 bitrate=1371.4kbits/s speed=0.267x    frame=  428 fps= 15 q=66.0 size=    1262kB time=00:00:07.70 bitrate=1342.9kbits/s speed=0.268x    frame=  437 fps= 15 q=66.0 size=    1262kB time=00:00:07.88 bitrate=1312.3kbits/s speed=0.269x    frame=  445 fps= 15 q=66.0 size=    1262kB time=00:00:08.04 bitrate=1286.2kbits/s speed=0.27x    frame=  453 fps= 15 q=66.0 size=    1262kB time=00:00:08.20 bitrate=1261.1kbits/s speed=0.271x    frame=  460 fps= 15 q=66.0 size=    1262kB time=00:00:08.34 bitrate=1239.9kbits/s speed=0.27x    frame=  469 fps= 15 q=66.0 size=    1262kB time=00:00:08.52 bitrate=1213.7kbits/s speed=0.271x    frame=  478 fps= 15 q=66.0 size=    1262kB time=00:00:08.70 bitrate=1188.6kbits/s speed=0.272x    frame=  486 fps= 15 q=66.0 size=    1262kB time=00:00:08.86 bitrate=1167.1kbits/s speed=0.273x    frame=  494 fps= 15 q=66.0 size=    1262kB time=00:00:09.02 bitrate=1146.4kbits/s speed=0.273x    frame=  500 fps= 14 q=-1.0 Lsize=    2592kB time=00:00:09.94 bitrate=2135.8kbits/s speed=0.284x    
video:2588kB audio:0kB subtitle:0kB other streams:0kB global headers:0kB muxing overhead: 0.163306%
bench: utime=111.028s
bench: maxrss=1561028kB
[libx264 @ 0x35de1c0] frame I:2     Avg QP:47.36  size: 68775
[libx264 @ 0x35de1c0] frame P:126   Avg QP:50.95  size:  8499
[libx264 @ 0x35de1c0] frame B:372   Avg QP:50.98  size:  3872
[libx264 @ 0x35de1c0] consecutive B-frames:  0.8%  0.0%  0.0% 99.2%
[libx264 @ 0x35de1c0] mb I  I16..4: 34.6% 63.9%  1.5%
[libx264 @ 0x35de1c0] mb P  I16..4: 15.5%  0.8%  0.0%  P16..4:  7.9%  0.4%  1.8%  0.0%  0.0%    skip:73.6%
[libx264 @ 0x35de1c0] mb B  I16..4:  0.0%  0.0%  0.0%  B16..8:  6.7%  0.0%  0.0%  direct: 0.5%  skip:92.7%  L0:48.6% L1:51.4% BI: 0.0%
[libx264 @ 0x35de1c0] final ratefactor: 57.66
[libx264 @ 0x35de1c0] 8x8 transform intra:10.6% inter:98.6%
[libx264 @ 0x35de1c0] coded y,uvDC,uvAC intra: 1.8% 5.2% 0.8% inter: 0.2% 0.2% 0.0%
[libx264 @ 0x35de1c0] i16 v,h,dc,p: 83% 14%  3%  1%
[libx264 @ 0x35de1c0] i8 v,h,dc,ddl,ddr,vr,hd,vl,hu: 19% 10% 49%  5%  3%  3%  3%  3%  3%
[libx264 @ 0x35de1c0] i4 v,h,dc,ddl,ddr,vr,hd,vl,hu: 30% 17% 15%  9%  8%  7%  6%  5%  4%
[libx264 @ 0x35de1c0] i8c dc,h,v,p: 99%  0%  0%  0%
[libx264 @ 0x35de1c0] Weighted P-Frames: Y:1.6% UV:0.0%
[libx264 @ 0x35de1c0] ref P L0: 54.8% 45.2%
[libx264 @ 0x35de1c0] ref B L0: 73.8% 26.2%
[libx264 @ 0x35de1c0] ref B L1: 87.9% 12.1%
[libx264 @ 0x35de1c0] kb/s:2119.14
